<?xml version="1.0" standalone="no"?>
<!DOCTYPE svg PUBLIC "-//W3C//DTD SVG 20010904//EN"
 "http://www.w3.org/TR/2001/REC-SVG-20010904/DTD/svg10.dtd">
<svg version="1.0" xmlns="http://www.w3.org/2000/svg"
	 width="99.000000pt" height="30.000000pt" viewBox="0 0 99.000000 30.000000"
	 preserveAspectRatio="xMidYMid meet">

	<g transform="translate(0.000000,30.000000) scale(0.100000,-0.100000)"
	fill="#000000" stroke="none">
	<path d="M28 289 c-10 -5 -18 -16 -18 -24 0 -8 26 -67 57 -130 54 -108 78
	-136 103 -120 11 7 112 204 124 241 5 16 0 23 -18 32 -30 13 -27 17 -82 -98
	l-41 -85 -46 98 c-25 53 -49 97 -54 97 -4 0 -16 -5 -25 -11z"/>
	<path d="M344 210 c-57 -23 -83 -111 -46 -156 44 -55 109 -59 158 -10 51 51
	43 119 -18 156 -35 21 -60 24 -94 10z m74 -92 c6 -47 -59 -62 -73 -17 -9 27
	13 51 44 47 20 -2 27 -9 29 -30z"/>
	<path d="M615 210 c-11 -4 -37 -5 -58 -2 l-38 5 3 -99 c3 -98 3 -99 28 -99 24
	0 25 4 30 65 l5 65 40 5 c34 4 40 9 43 31 3 29 -19 41 -53 29z"/>
	<path d="M705 179 c-28 -35 -32 -76 -10 -118 18 -36 67 -58 98 -44 15 7 27 7
	38 0 9 -6 24 -7 33 -4 13 5 16 23 16 101 l0 94 -75 0 c-71 1 -76 -1 -100 -29z
	m100 -64 c0 -23 -5 -31 -21 -33 -30 -4 -48 21 -34 48 18 33 55 23 55 -15z"/>
	<path d="M914 66 c-12 -31 0 -51 31 -51 27 0 30 3 30 30 0 25 -4 30 -28 33
	-17 2 -29 -2 -33 -12z"/>
	</g>
</svg>
