<?xml version="1.0" standalone="no"?>
<!DOCTYPE svg PUBLIC "-//W3C//DTD SVG 20010904//EN"
 "http://www.w3.org/TR/2001/REC-SVG-20010904/DTD/svg10.dtd">
<svg version="1.0" xmlns="http://www.w3.org/2000/svg"
 width="58.000000pt" height="58.000000pt" viewBox="0 0 58.000000 58.000000"
 preserveAspectRatio="xMidYMid meet">

<g transform="translate(0.000000,58.000000) scale(0.100000,-0.100000)"
fill="#000000" stroke="none">
<path d="M146 570 c-47 -15 -94 -52 -118 -95 -19 -33 -23 -59 -26 -148 -2 -59
-1 -127 2 -151 10 -64 52 -122 110 -151 45 -23 62 -25 177 -25 119 0 130 2
180 28 43 22 59 38 81 81 26 49 28 62 28 170 0 64 -4 131 -10 150 -14 51 -50
97 -95 123 -35 20 -55 23 -170 25 -72 1 -143 -2 -159 -7z m106 -230 c17 -38
34 -70 38 -70 3 0 20 32 37 70 31 70 49 84 72 56 18 -21 -81 -216 -109 -216
-29 0 -132 206 -110 220 30 19 42 9 72 -60z"/>
</g>
</svg>
