<?xml version="1.0" standalone="no"?>
<!DOCTYPE svg PUBLIC "-//W3C//DTD SVG 20010904//EN"
 "http://www.w3.org/TR/2001/REC-SVG-20010904/DTD/svg10.dtd">
<svg version="1.0" xmlns="http://www.w3.org/2000/svg"
 width="500.000000pt" height="500.000000pt" viewBox="0 0 500.000000 500.000000"
 preserveAspectRatio="xMidYMid meet">

<g transform="translate(0.000000,500.000000) scale(0.100000,-0.100000)"
fill="#000000" stroke="none">
<path d="M2105 3151 c-22 -10 -53 -32 -70 -49 -49 -50 -705 -1167 -705 -1200
0 -16 9 -38 20 -50 l21 -22 742 0 c701 0 744 1 782 19 22 10 54 34 72 52 27
28 624 1025 684 1141 25 49 24 80 -4 106 l-23 22 -740 0 c-694 0 -741 -2 -779
-19z m415 -317 c63 -18 130 -51 130 -63 0 -5 -14 -39 -30 -76 -34 -75 -25 -73
-129 -30 -74 31 -167 43 -199 26 -22 -12 -30 -54 -14 -77 11 -18 60 -39 168
-73 64 -20 114 -43 139 -63 95 -79 100 -218 10 -304 -103 -99 -309 -107 -485
-19 -97 49 -98 50 -56 134 l36 70 49 -33 c63 -43 161 -76 223 -76 39 0 54 5
73 25 55 54 26 83 -137 136 -115 36 -138 48 -174 83 -71 70 -80 177 -23 257
67 94 251 130 419 83z m297 -588 c22 -19 28 -32 28 -66 0 -73 -67 -110 -134
-75 -33 16 -41 33 -41 81 0 75 88 111 147 60z"/>
</g>
</svg>
